<svg width="0" height="0" class="hidden">
  <symbol xmlns="http://www.w3.org/2000/svg" viewBox="0 0 16 16" id="repo-forked">
    <path d="M5 5.372v.878c0 .414.336.75.75.75h4.5a.75.75 0 0 0 .75-.75v-.878a2.25 2.25 0 1 1 1.5 0v.878a2.25 2.25 0 0 1-2.25 2.25h-1.5v2.128a2.251 2.251 0 1 1-1.5 0V8.5h-1.5A2.25 2.25 0 0 1 3.5 6.25v-.878a2.25 2.25 0 1 1 1.5 0ZM5 3.25a.75.75 0 1 0-1.5 0 .75.75 0 0 0 1.5 0Zm6.75.75a.75.75 0 1 0 0-1.5.75.75 0 0 0 0 1.5Zm-3 8.75a.75.75 0 1 0-1.5 0 .75.75 0 0 0 1.5 0Z"></path>
  </symbol>
  <symbol xmlns="http://www.w3.org/2000/svg" viewBox="0 0 512 512" id="search-outline">
    <title>ionicons-v5-f</title>
    <path d="M221.09,64A157.09,157.09,0,1,0,378.18,221.09,157.1,157.1,0,0,0,221.09,64Z"></path>
    <line x1="338.29" y1="338.29" x2="448" y2="448"></line>
  </symbol>
  <symbol xmlns="http://www.w3.org/2000/svg" viewBox="0 0 16 16" id="star">
    <path d="M8 .25a.75.75 0 0 1 .673.418l1.882 3.815 4.21.612a.75.75 0 0 1 .416 1.279l-3.046 2.97.719 4.192a.751.751 0 0 1-1.088.791L8 12.347l-3.766 1.98a.75.75 0 0 1-1.088-.79l.72-4.194L.818 6.374a.75.75 0 0 1 .416-1.28l4.21-.611L7.327.668A.75.75 0 0 1 8 .25Zm0 2.445L6.615 5.5a.75.75 0 0 1-.564.41l-3.097.45 2.24 2.184a.75.75 0 0 1 .216.664l-.528 3.084 2.769-1.456a.75.75 0 0 1 .698 0l2.77 1.456-.53-3.084a.75.75 0 0 1 .216-.664l2.24-2.183-3.096-.45a.75.75 0 0 1-.564-.41L8 2.694Z"></path>
  </symbol>
  <symbol xmlns="http://www.w3.org/2000/svg" viewBox="0 0 16 16" id="star-fill">
    <path d="M8 .25a.75.75 0 0 1 .673.418l1.882 3.815 4.21.612a.75.75 0 0 1 .416 1.279l-3.046 2.97.719 4.192a.751.751 0 0 1-1.088.791L8 12.347l-3.766 1.98a.75.75 0 0 1-1.088-.79l.72-4.194L.818 6.374a.75.75 0 0 1 .416-1.28l4.21-.611L7.327.668A.75.75 0 0 1 8 .25Z"></path>
  </symbol>
  <symbol xmlns="http://www.w3.org/2000/svg" viewBox="0 0 512 512" id="search">
    <title>Search</title>
    <path d="M456.69 421.39L362.6 327.3a173.81 173.81 0 0034.84-104.58C397.44 126.38 319.06 48 222.72 48S48 126.38 48 222.72s78.38 174.72 174.72 174.72A173.81 173.81 0 00327.3 362.6l94.09 94.09a25 25 0 0035.3-35.3zM97.92 222.72a124.8 124.8 0 11124.8 124.8 124.95 124.95 0 01-124.8-124.8z"></path>
  </symbol>
  <symbol xmlns="http://www.w3.org/2000/svg" viewBox="0 0 512 512" id="close">
    <title>ionicons-v5-m</title>
    <path d="M289.94,256l95-95A24,24,0,0,0,351,127l-95,95-95-95A24,24,0,0,0,127,161l95,95-95,95A24,24,0,1,0,161,385l95-95,95,95A24,24,0,0,0,385,351Z"></path>
  </symbol>
  <symbol xmlns="http://www.w3.org/2000/svg" viewBox="0 0 16 16" id="eye">
    <path d="M8 2c1.981 0 3.671.992 4.933 2.078 1.27 1.091 2.187 2.345 2.637 3.023a1.62 1.62 0 0 1 0 1.798c-.45.678-1.367 1.932-2.637 3.023C11.67 13.008 9.981 14 8 14c-1.981 0-3.671-.992-4.933-2.078C1.797 10.83.88 9.576.43 8.898a1.62 1.62 0 0 1 0-1.798c.45-.677 1.367-1.931 2.637-3.022C4.33 2.992 6.019 2 8 2ZM1.679 7.932a.12.12 0 0 0 0 .136c.411.622 1.241 1.75 2.366 2.717C5.176 11.758 6.527 12.5 8 12.5c1.473 0 2.825-.742 3.955-1.715 1.124-.967 1.954-2.096 2.366-2.717a.12.12 0 0 0 0-.136c-.412-.621-1.242-1.75-2.366-2.717C10.824 4.242 9.473 3.5 8 3.5c-1.473 0-2.825.742-3.955 1.715-1.124.967-1.954 2.096-2.366 2.717ZM8 10a2 2 0 1 1-.001-3.999A2 2 0 0 1 8 10Z"></path>
  </symbol>
  <symbol xmlns="http://www.w3.org/2000/svg" viewBox="0 0 512 512" id="options-outline">
    <title>ionicons-v5-i</title>
    <line x1="368" y1="128" x2="448" y2="128"></line>
    <line x1="64" y1="128" x2="304" y2="128"></line>
    <line x1="368" y1="384" x2="448" y2="384"></line>
    <line x1="64" y1="384" x2="304" y2="384"></line>
    <line x1="208" y1="256" x2="448" y2="256"></line>
    <line x1="64" y1="256" x2="144" y2="256"></line>
    <circle cx="336" cy="128" r="32"></circle>
    <circle cx="176" cy="256" r="32"></circle>
    <circle cx="336" cy="384" r="32"></circle>
  </symbol>
  <symbol xmlns="http://www.w3.org/2000/svg" viewBox="0 0 512 512" id="options">
    <title>Options</title>
    <path d="M64 144h226.75a48 48 0 0090.5 0H448a16 16 0 000-32h-66.75a48 48 0 00-90.5 0H64a16 16 0 000 32zM448 368h-66.75a48 48 0 00-90.5 0H64a16 16 0 000 32h226.75a48 48 0 0090.5 0H448a16 16 0 000-32zM448 240H221.25a48 48 0 00-90.5 0H64a16 16 0 000 32h66.75a48 48 0 0090.5 0H448a16 16 0 000-32z"></path>
  </symbol>
  <symbol xmlns="http://www.w3.org/2000/svg" viewBox="0 0 16 16" id="repo">
    <path d="M2 2.5A2.5 2.5 0 0 1 4.5 0h8.75a.75.75 0 0 1 .75.75v12.5a.75.75 0 0 1-.75.75h-2.5a.75.75 0 0 1 0-1.5h1.75v-2h-8a1 1 0 0 0-.714 1.7.75.75 0 1 1-1.072 1.05A2.495 2.495 0 0 1 2 11.5Zm10.5-1h-8a1 1 0 0 0-1 1v6.708A2.486 2.486 0 0 1 4.5 9h8ZM5 12.25a.25.25 0 0 1 .25-.25h3.5a.25.25 0 0 1 .25.25v3.25a.25.25 0 0 1-.4.2l-1.45-1.087a.249.249 0 0 0-.3 0L5.4 15.7a.25.25 0 0 1-.4-.2Z"></path>
  </symbol>
  <symbol xmlns="http://www.w3.org/2000/svg" viewBox="0 0 16 16" id="person">
    <path d="M10.561 8.073a6.005 6.005 0 0 1 3.432 5.142.75.75 0 1 1-1.498.07 4.5 4.5 0 0 0-8.99 0 .75.75 0 0 1-1.498-.07 6.004 6.004 0 0 1 3.431-5.142 3.999 3.999 0 1 1 5.123 0ZM10.5 5a2.5 2.5 0 1 0-5 0 2.5 2.5 0 0 0 5 0Z"></path>
  </symbol>
  <symbol xmlns="http://www.w3.org/2000/svg" viewBox="0 0 512 512" id="arrow-forward-outline">
    <title>ionicons-v5-a</title>
    <polyline points="268 112 412 256 268 400"></polyline>
    <line x1="392" y1="256" x2="100" y2="256"></line>
  </symbol>
   <symbol xmlns="http://www.w3.org/2000/svg" viewBox="0 0 512 512" id="arrow-back-outline">
    <title>ionicons-v5-a</title>
    <polyline points="244 400 100 256 244 112"></polyline>
    <line x1="120" y1="256" x2="412" y2="256"></line>
  </symbol>
  <symbol version="1.1" xmlns="http://www.w3.org/2000/svg" viewBox="0 0 24 24" id="arrow-right-thick">
    <title>arrow-right-thick</title>
    <path d="M10.586 6.586c-0.781 0.779-0.781 2.047 0 2.828l1.586 1.586h-7.244c-1.104 0-2 0.895-2 2s0.896 2 2 2h7.244l-1.586 1.586c-0.781 0.779-0.781 2.047 0 2.828 0.391 0.391 0.902 0.586 1.414 0.586s1.023-0.195 1.414-0.586l6.414-6.414-6.414-6.414c-0.781-0.781-2.047-0.781-2.828 0z"></path>
  </symbol>
  <symbol version="1.1" xmlns="http://www.w3.org/2000/svg" viewBox="0 0 24 24" id="arrow-left-thick">
    <title>arrow-left-thick</title>
    <path d="M18 11h-7.244l1.586-1.586c0.781-0.781 0.781-2.049 0-2.828-0.781-0.781-2.047-0.781-2.828 0l-6.414 6.414 6.414 6.414c0.39 0.391 0.902 0.586 1.414 0.586s1.023-0.195 1.414-0.586c0.781-0.781 0.781-2.049 0-2.828l-1.586-1.586h7.244c1.104 0 2-0.896 2-2 0-1.105-0.896-2-2-2z"></path>
  </symbol>
   <symbol xmlns="http://www.w3.org/2000/svg" viewBox="0 0 512 512" id="chevron-down">
    <title>ionicons-v5-a</title>
    <polyline points="112 184 256 328 400 184"></polyline>
  </symbol>
  <symbol xmlns="http://www.w3.org/2000/svg" id="loader" viewBox="0 0 24 24">
  <path d="M12 22c5.421 0 10-4.579 10-10h-2c0 4.337-3.663 8-8 8s-8-3.663-8-8c0-4.336 3.663-8 8-8V2C6.579 2 2 6.58 2 12c0 5.421 4.579 10 10 10z"/>
  </symbol>
   <symbol version="1.1" xmlns="http://www.w3.org/2000/svg" viewBox="0 0 512 512" id="info">
    <title>info</title>
    <g id="icomoon-ignore"></g>
    <path d="M224 152c0-13.2 10.8-24 24-24h16c13.2 0 24 10.8 24 24v16c0 13.2-10.8 24-24 24h-16c-13.2 0-24-10.8-24-24v-16z"></path>
    <path d="M320 384h-128v-32h32v-96h-32v-32h96v128h32z"></path>
    <path d="M256 0c-141.385 0-256 114.615-256 256s114.615 256 256 256 256-114.615 256-256-114.615-256-256-256zM256 464c-114.875 0-208-93.125-208-208s93.125-208 208-208 208 93.125 208 208-93.125 208-208 208z"></path>
  </symbol>
   <symbol version="1.1" xmlns="http://www.w3.org/2000/svg" viewBox="0 0 768 768" id="external-link">
    <title>external-link</title>
    <g id="icomoon-ignore"></g>
    <path  d="M544 416v192c0 8.832-3.552 16.8-9.376 22.624s-13.792 9.376-22.624 9.376h-352c-8.832 0-16.8-3.552-22.624-9.376s-9.376-13.792-9.376-22.624v-352c0-8.832 3.552-16.8 9.376-22.624s13.792-9.376 22.624-9.376h192c17.664 0 32-14.336 32-32s-14.336-32-32-32h-192c-26.496 0-50.56 10.784-67.872 28.128s-28.128 41.376-28.128 67.872v352c0 26.496 10.784 50.56 28.128 67.872s41.376 28.128 67.872 28.128h352c26.496 0 50.56-10.784 67.872-28.128s28.128-41.376 28.128-67.872v-192c0-17.664-14.336-32-32-32s-32 14.336-32 32zM342.624 470.624l297.376-297.376v114.752c0 17.664 14.336 32 32 32s32-14.336 32-32v-192c0-4.352-0.864-8.48-2.432-12.256s-3.872-7.296-6.912-10.336c-0.032-0.032-0.032-0.032-0.064-0.064-2.944-2.944-6.464-5.312-10.336-6.912-3.776-1.568-7.904-2.432-12.256-2.432h-192c-17.664 0-32 14.336-32 32s14.336 32 32 32h114.752l-297.376 297.376c-12.512 12.512-12.512 32.768 0 45.248s32.768 12.512 45.248 0z"></path>
  </symbol>
  <symbol version="1.1" xmlns="http://www.w3.org/2000/svg" viewBox="0 0 512 512" id="github">
    <title>external-link</title>
    <g id="icomoon-ignore"></g>
    <path d="M256.004 6.321c-141.369 0-256.004 114.609-256.004 255.999 0 113.107 73.352 209.066 175.068 242.918 12.793 2.369 17.496-5.555 17.496-12.316 0-6.102-0.24-26.271-0.348-47.662-71.224 15.488-86.252-30.205-86.252-30.205-11.641-29.588-28.424-37.458-28.424-37.458-23.226-15.889 1.755-15.562 1.755-15.562 25.7 1.805 39.238 26.383 39.238 26.383 22.836 39.135 59.888 27.82 74.502 21.279 2.294-16.543 8.926-27.84 16.253-34.232-56.865-6.471-116.638-28.425-116.638-126.516 0-27.949 10.002-50.787 26.38-68.714-2.658-6.45-11.427-32.486 2.476-67.75 0 0 21.503-6.876 70.42 26.245 20.418-5.674 42.318-8.518 64.077-8.617 21.751 0.099 43.668 2.943 64.128 8.617 48.867-33.122 70.328-26.245 70.328-26.245 13.936 35.264 5.175 61.3 2.518 67.75 16.41 17.928 26.347 40.766 26.347 68.714 0 98.327-59.889 119.975-116.895 126.312 9.182 7.945 17.362 23.523 17.362 47.406 0 34.254-0.298 61.822-0.298 70.254 0 6.814 4.611 14.797 17.586 12.283 101.661-33.888 174.921-129.813 174.921-242.884 0-141.39-114.617-255.999-255.996-255.999z"></path>
  </symbol>
  <symbol version="1.1" xmlns="http://www.w3.org/2000/svg" viewBox="0 0 768 768" id="sort">
    <title></title>
    <g id="icomoon-ignore"></g>
    <path d="M96 415.5v-63h384v63h-384zM96 192h576v64.5h-576v-64.5zM96 576v-64.5h192v64.5h-192z"></path>
  </symbol>
  <symbol version="1.1" xmlns="http://www.w3.org/2000/svg" viewBox="0 0 511 512" id="light-fill">
    <title></title>
    <g id="icomoon-ignore"></g>
    <path  d="M256.016 128c-70.688 0-128 57.312-128 128s57.312 128 128 128c70.688 0 127.984-57.312 127.984-128s-57.296-128-127.984-128v0zM224 32c0-17.673 14.327-32 32-32s32 14.327 32 32c0 17.673-14.327 32-32 32s-32-14.327-32-32zM64 96c0-17.673 14.327-32 32-32s32 14.327 32 32c0 17.673-14.327 32-32 32s-32-14.327-32-32zM32 224c17.68 0 32 14.32 32 32 0 17.712-14.32 32-32 32s-32-14.288-32-32c0-17.68 14.32-32 32-32zM64 416c0-17.673 14.327-32 32-32s32 14.327 32 32c0 17.673-14.327 32-32 32s-32-14.327-32-32zM224 480c0-17.744 14.32-32 32-32 17.728 0 32 14.256 32 32 0 17.632-14.272 32-32 32-17.68 0-32-14.368-32-32zM384 416c0-17.673 14.327-32 32-32s32 14.327 32 32c0 17.673-14.327 32-32 32s-32-14.327-32-32zM480 288c-17.664 0-32-14.336-32-32 0-17.712 14.336-32 32-32s32 14.288 32 32c0 17.664-14.336 32-32 32zM384 96c0-17.673 14.327-32 32-32s32 14.327 32 32c0 17.673-14.327 32-32 32s-32-14.327-32-32z"></path>
  </symbol>
   <symbol version="1.1" xmlns="http://www.w3.org/2000/svg" viewBox="0 0 512 512" id="dark-fill">
    <title></title>
    <g id="icomoon-ignore"></g>
    <path  d="M394.128 354.944c-131.008 0-237.12-106.192-237.12-237.12 0-43.12 12.368-83.008 32.496-117.808-109.184 31.488-189.504 130.992-189.504 250.304 0 144.496 117.12 261.68 261.632 261.68 119.312 0 218.88-80.368 250.368-189.504-34.88 20.064-74.752 32.448-117.872 32.448z"></path>
  </symbol>
  <symbol version="1.1" xmlns="http://www.w3.org/2000/svg" viewBox="0 0 640 640" id="view-show">
    <title></title>
    <g id="icomoon-ignore"></g>
    <path  d="M6.4 320c59.516-114.936 177.544-192.128 313.6-192.128s254.084 77.192 312.676 190.169l0.924 1.959c-59.516 114.936-177.544 192.128-313.6 192.128s-254.084-77.192-312.676-190.169l-0.924-1.959zM320 448c70.692 0 128-57.308 128-128s-57.308-128-128-128v0c-70.692 0-128 57.308-128 128s57.308 128 128 128v0zM320 384c-35.346 0-64-28.654-64-64s28.654-64 64-64v0c35.346 0 64 28.654 64 64s-28.654 64-64 64v0z"></path>
  </symbol>
</svg>


