<!-- Generated by IcoMoon.io -->
<svg version="1.1" xmlns="http://www.w3.org/2000/svg" width="511" height="512" viewBox="0 0 511 512">
<title></title>
<g id="icomoon-ignore">
</g>
<path fill="#000" d="M256.016 128c-70.688 0-128 57.312-128 128s57.312 128 128 128c70.688 0 127.984-57.312 127.984-128s-57.296-128-127.984-128v0zM224 32c0-17.673 14.327-32 32-32s32 14.327 32 32c0 17.673-14.327 32-32 32s-32-14.327-32-32zM64 96c0-17.673 14.327-32 32-32s32 14.327 32 32c0 17.673-14.327 32-32 32s-32-14.327-32-32zM32 224c17.68 0 32 14.32 32 32 0 17.712-14.32 32-32 32s-32-14.288-32-32c0-17.68 14.32-32 32-32zM64 416c0-17.673 14.327-32 32-32s32 14.327 32 32c0 17.673-14.327 32-32 32s-32-14.327-32-32zM224 480c0-17.744 14.32-32 32-32 17.728 0 32 14.256 32 32 0 17.632-14.272 32-32 32-17.68 0-32-14.368-32-32zM384 416c0-17.673 14.327-32 32-32s32 14.327 32 32c0 17.673-14.327 32-32 32s-32-14.327-32-32zM480 288c-17.664 0-32-14.336-32-32 0-17.712 14.336-32 32-32s32 14.288 32 32c0 17.664-14.336 32-32 32zM384 96c0-17.673 14.327-32 32-32s32 14.327 32 32c0 17.673-14.327 32-32 32s-32-14.327-32-32z"></path>
</svg>
